<svg id="Layer_1" data-name="Layer 1" xmlns="http://www.w3.org/2000/svg" viewBox="0 0 51.3 51.3"><title>icon - black</title><path d="M43.76,7.54a25.61,25.61,0,1,0,0,36.22,25.65,25.65,0,0,0,0-36.22m-18.11,38A19.86,19.86,0,1,1,45.5,25.65,19.86,19.86,0,0,1,25.65,45.5Z"/><path d="M25.65,10.32a15.33,15.33,0,1,0,0,30.65,15.19,15.19,0,0,0,9.5-3.39l-7.74-7.75a4.58,4.58,0,0,1-1.76.36,4.55,4.55,0,0,1-3.21-7.75,4.66,4.66,0,0,1,6.42,0,4.56,4.56,0,0,1,.95,5l7.75,7.74A15.16,15.16,0,0,0,41,25.65,15.34,15.34,0,0,0,25.65,10.32"/></svg>